<?xml version="1.0" encoding="UTF-8"?>
<svg id="Layer_2" data-name="Layer 2" xmlns="http://www.w3.org/2000/svg" viewBox="0 0 144.32 144.32">
  <defs>
    <style>
      .cls-1 {
        fill-rule: evenodd;
      }
    </style>
  </defs>
  <g id="layer">
    <g>
      <path class="cls-1" d="M11.81,72.31l60.4,60.3,60.3-60.3L72.21,12.01,11.81,72.31ZM42.01,72.31c0-6.5,2.1-12.6,5.6-17.5,3.6-5,8.6-8.8,14.4-10.9v1.9c-10.7,4.1-18.4,14.5-18.4,26.5,0,11,6.3,20.7,15.6,25.3v-1.8c-8.3-4.6-14-13.5-14-23.6,0-11.3,7-21,16.8-24.9v1.9c-8.8,3.9-15.1,12.7-15.1,23,0,9.1,4.8,17.3,12.3,21.7v-1.9c-6.4-4.2-10.6-11.6-10.6-19.7,0-9.3,5.6-17.6,13.4-21.4v2c-7,3.8-11.8,10.9-11.8,19.3,0,7.2,3.4,13.8,9,17.7v-32.8s1-.7,1-.7l5.4,6.2v4.57s.2.23.2.23h-.2s0-.23,0-.23l-3.5-3.97v37.5c-11.6-4.2-20.1-15.4-20.1-28.4ZM74.91,27.71h1.8s0,11.4,0,11.4h-1.8s-5.4-8.2-5.4-8.2v8.2s-1.8,0-1.8,0v-11.4s1.8,0,1.8,0l5.4,8.3v-8.3ZM76.71,40.71v1.8s-7.2,0-7.2,0v3.1s7.2,0,7.2,0v1.8s-7.2,0-7.2,0v2.9h7.2s0,1.8,0,1.8h-9s0-11.4,0-11.4h9ZM69.51,53.61v7c0,1.9,1.5,2.7,2.7,2.7,1.3,0,2.7-.7,2.7-2.7v-7s1.8,0,1.8,0v7.2c0,2.5-1.9,4.4-4.5,4.4-2.6,0-4.5-1.8-4.5-4.4v-7.2s1.8,0,1.8,0ZM75.51,66.51h1.2s0,11.3,0,11.3h-1.8s0-7.9,0-7.9l-2.6,3.2-2.8-3.2v7.9s-1.8,0-1.8,0v.1s0-11.4,0-11.4h1.2s3.3,3.9,3.3,3.9l3.3-3.9ZM69.51,116.71h-1.8s0-11.4,0-11.4h1.8s5.4,8.3,5.4,8.3v-8.3s1.8,0,1.8,0v11.4s-1.8,0-1.8,0l-5.4-8.2v8.2ZM74.91,103.81l-5.4-8.2v8.2s-1.8,0-1.8,0v-11.4s1.8,0,1.8,0l5.4,8.3v-8.3s1.8,0,1.8,0v11.4s-1.8,0-1.8,0ZM74.81,90.81l-.5-1.8h-4.2s-.6,1.8-.6,1.8h-1.8s3.6-11.4,3.6-11.4h1.9s3.5,11.4,3.5,11.4h-1.9ZM64.21,120.21v-51.8s1.6,1.7,1.6,1.7v48.4s12.8,0,12.8,0v-33.7s1.5,1.8,1.5,1.8v33.6s-15.9,0-15.9,0ZM102.31,72.21c0,6.5-2.1,12.6-5.6,17.5-3.6,5-8.6,8.8-14.4,10.9v-1.9c10.7-4.1,18.3-14.5,18.3-26.5,0-11.1-6.3-20.7-15.6-25.4v1.8c8.3,4.6,14.1,13.5,14.1,23.6,0,11.2-7,21-16.8,24.9v-1.9c8.8-3.9,15.1-12.7,15.1-22.9,0-9.2-4.8-17.3-12.3-21.7v1.9c6.4,4.2,10.6,11.6,10.6,19.8,0,9.3-5.5,17.6-13.4,21.3v-2c7-3.8,11.8-10.9,11.8-19.3,0-7.3-3.4-13.9-9-17.8v32.9s-1,.7-1,.7l-5.3-6.2v-4.57s-.2-.23-.2-.23h.2s0,.23,0,.23l3.4,3.87v-37.4c11.7,4.2,20.1,15.4,20.1,28.4ZM80.11,24.41v51.9s-1.5-1.9-1.5-1.9v-23.2s0-25.3,0-25.3h-12.8s0,34,0,34l-1.6-1.9V24.41s15.9,0,15.9,0Z"/>
      <polygon class="cls-1" points="73.71 87.31 72.21 82.41 70.61 87.31 73.71 87.31"/>
      <path class="cls-1" d="M72.16,0L0,72.16l72.16,72.16,72.16-72.16L72.16,0ZM6.01,72.31L72.11,6.11l66.1,66.1-66,66.2L6.01,72.31Z"/>
    </g>
  </g>
</svg>