<?xml version="1.0" encoding="UTF-8"?>
<svg id="Layer_2" data-name="Layer 2" xmlns="http://www.w3.org/2000/svg" viewBox="0 0 132.2 132.3">
  <defs>
    <style>
      .cls-1 {
        fill: #b6b7b7;
        fill-rule: evenodd;
      }
    </style>
  </defs>
  <g id="layer">
    <path class="cls-1" d="M72.6,68.3V19.8h-12.8v34l-1.6-1.9V18.3h15.9v51.9l-1.5-1.9M59.8,64v48.4h12.8v-33.7l1.5,1.8v33.6h-15.9v-51.8l1.6,1.7ZM66.2,126.5L5.8,66.2,66.2,5.9l60.3,60.3-60.3,60.3ZM66.2,132.3L0,66.2,66.1,0l66.1,66.1-66,66.2ZM59.8,61.3l-3.7-4.2v37.5c-11.6-4.2-20.1-15.4-20.1-28.4,0-6.5,2.1-12.6,5.6-17.5,3.6-5,8.6-8.8,14.4-10.9v1.9c-10.7,4.1-18.4,14.5-18.4,26.5,0,11,6.3,20.7,15.6,25.3v-1.8c-8.3-4.6-14-13.5-14-23.6,0-11.3,7-21,16.8-24.9v1.9c-8.8,3.9-15.1,12.7-15.1,23,0,9.1,4.8,17.3,12.3,21.7v-1.9c-6.4-4.2-10.6-11.6-10.6-19.7,0-9.3,5.6-17.6,13.4-21.4v2c-7,3.8-11.8,10.9-11.8,19.3,0,7.2,3.4,13.8,9,17.7v-32.8l1-.7,5.4,6.2v4.8h.2ZM72.6,71l3.6,4.1v-37.4c11.7,4.2,20.1,15.4,20.1,28.4,0,6.5-2.1,12.6-5.6,17.5-3.6,5-8.6,8.8-14.4,10.9v-1.9c10.7-4.1,18.3-14.5,18.3-26.5,0-11.1-6.3-20.7-15.6-25.4v1.8c8.3,4.6,14.1,13.5,14.1,23.6,0,11.2-7,21-16.8,24.9v-1.9c8.8-3.9,15.1-12.7,15.1-22.9,0-9.2-4.8-17.3-12.3-21.7v1.9c6.4,4.2,10.6,11.6,10.6,19.8,0,9.3-5.5,17.6-13.4,21.3v-2c7-3.8,11.8-10.9,11.8-19.3,0-7.3-3.4-13.9-9-17.8v32.9l-1,.7-5.3-6.2v-4.8h-.2ZM61.7,99.2h1.8l5.4,8.3v-8.3h1.8v11.4h-1.8l-5.4-8.2v8.2h-1.8v-11.4ZM61.7,86.3h1.8l5.4,8.3v-8.3h1.8v11.4h-1.8l-5.4-8.2v8.2h-1.8v-11.4ZM65.3,73.3h1.9l3.5,11.4h-1.9l-.5-1.8h-4.2l-.6,1.8h-1.8l3.6-11.4ZM66.2,76.3l-1.6,4.9h3.1l-1.5-4.9ZM61.7,71.8v-11.4h1.2l3.3,3.9,3.3-3.9h1.2v11.3h-1.8v-7.9l-2.6,3.2-2.8-3.2v7.9h-1.8v.1ZM61.7,54.7v-7.2h1.8v7c0,1.9,1.5,2.7,2.7,2.7,1.3,0,2.7-.7,2.7-2.7v-7h1.8v7.2c0,2.5-1.9,4.4-4.5,4.4-2.6,0-4.5-1.8-4.5-4.4ZM61.7,21.6h1.8l5.4,8.3v-8.3h1.8v11.4h-1.8l-5.4-8.2v8.2h-1.8v-11.4ZM61.7,34.6h9v1.8h-7.2v3.1h7.2v1.8h-7.2v2.9h7.2v1.8h-9v-11.4Z"/>
  </g>
</svg>