<?xml version="1.0" encoding="UTF-8"?>
<svg id="Layer_2" data-name="Layer 2" xmlns="http://www.w3.org/2000/svg" viewBox="0 0 262.73 27">
  <defs>
    <style>
      .cls-1 {
        fill: #231f20;
        fill-rule: evenodd;
      }
    </style>
  </defs>
  <g id="Calque_1" data-name="Calque 1">
    <g>
      <path class="cls-1" d="M20.61,0H0v20.64h2.56V2.56h15.67c.8-1.21,1.61-2.01,2.38-2.56h0ZM18.63,27h20.61V6.36h-2.56v18.05h-15.67c-.77,1.21-1.57,2.05-2.38,2.59h0ZM20.2,23.27c-2.27,3.69-4.38,3.73-6.98,3.73H0v-5.23h4.13c2.74,0,4.93-1.39,6.1-3.36L19.07,3.73C21.3.04,23.42,0,26.01,0h13.23v5.19h-4.13c-2.74,0-4.93,1.39-6.1,3.4l-8.81,14.69h0Z"/>
      <path class="cls-1" d="M66.09,16.33c1.21,1.61.8,5.55-2.96,5.55h-10.78v-3.4h4.75c.91,0,1.06-.84.51-1.57l-4.49-6.1c-1.21-1.61-.8-5.55,3-5.55h10.74v3.36h-4.75c-.88,0-1.02.88-.48,1.57l4.46,6.14h0ZM215.52,16.33c1.21,1.61.8,5.55-3,5.55h-10.78v-3.4h4.79c.88,0,1.02-.84.51-1.57l-4.49-6.1c-1.24-1.61-.84-5.55,2.96-5.55h10.78v3.36h-4.75c-.91,0-1.06.88-.51,1.57l4.49,6.14h0ZM72.3,5.26h14.65v3.51h-7.49v3.18h7.49v3.29h-7.49v3.11h7.49v3.54h-14.65V5.26h0ZM221.33,5.26h14.65v3.51h-7.49v3.18h7.49v3.29h-7.49v3.11h7.49v3.54h-14.65V5.26h0ZM168.25,5.26h14.65v3.51h-7.49v3.18h7.49v3.29h-7.49v3.11h7.49v3.54h-14.65V5.26h0ZM100.69,5.26h-7.53v16.62h3.4v-10.3l6.83,10.3h7.56V5.26h-3.43v10.34l-6.83-10.34h0ZM124.29,5.26h-7.53v16.62h3.43v-10.3l6.83,10.3h7.53V5.26h-3.43v10.34l-6.83-10.34h0ZM188.96,5.26h7.23v16.62h-7.23V5.26h0ZM141.13,5.26h7.27v6.32h5.74v-6.32h7.23v16.62h-7.23v-6.28h-5.74v6.28h-7.27V5.26h0ZM252.64,15.27h-3.07v6.61h-7.2V5.26h15.02c1.9,0,4.49,1.46,4.82,4.53.18,1.94-.58,3.73-3.21,4.97l3.73,7.12h-6.5l-3.58-6.61h0ZM249.57,8.62h4.2c.91,0,1.68.73,1.68,1.68h0c0,.91-.77,1.68-1.68,1.68h-4.2v-3.36h0Z"/>
    </g>
  </g>
</svg>