<?xml version="1.0" encoding="UTF-8"?>
<svg id="Layer_2" data-name="Layer 2" xmlns="http://www.w3.org/2000/svg" viewBox="0 0 27.82 19.14">
  <defs>
    <style>
      .cls-1 {
        fill: #231f20;
        fill-rule: evenodd;
      }
    </style>
  </defs>
  <g id="Calque_1" data-name="Calque 1">
    <path class="cls-1" d="M14.61,0H0v14.64h1.81V1.81h11.11c.57-.85,1.14-1.43,1.68-1.81h0ZM13.21,19.14h14.61V4.51h-1.81v12.8h-11.11c-.54.86-1.11,1.45-1.68,1.84h0ZM14.33,16.5c-1.61,2.62-3.11,2.64-4.95,2.64H0v-3.71h2.93c1.94,0,3.5-.98,4.33-2.38L13.52,2.64C15.1.03,16.6,0,18.44,0h9.38v3.68h-2.93c-1.94,0-3.5.98-4.33,2.41l-6.24,10.41h0Z"/>
  </g>
</svg>